inDegrees=yes
name=ik_Shooting_orientations
DataType=double
version=3
OpenSimVersion=4.3-2021-08-27-4bc7ad9
endheader
time	pelvis_tilt	pelvis_list	pelvis_rotation	pelvis_tx	pelvis_ty	pelvis_tz	hip_flexion_r	hip_adduction_r	hip_rotation_r	knee_angle_r	knee_angle_r_beta	ankle_angle_r	subtalar_angle_r	mtp_angle_r	hip_flexion_l	hip_adduction_l	hip_rotation_l	knee_angle_l	knee_angle_l_beta	ankle_angle_l	subtalar_angle_l	mtp_angle_l	lumbar_extension	lumbar_bending	lumbar_rotation	arm_flex_r	arm_add_r	arm_rot_r	elbow_flex_r	pro_sup_r	wrist_flex_r	wrist_dev_r	arm_flex_l	arm_add_l	arm_rot_l	elbow_flex_l	pro_sup_l	wrist_flex_l	wrist_dev_l
9.130000000000001	1.073917619731718	-1.851490742223794	152.2250179308554	0	0.9399999999999999	0	44.96584376936381	-10.00000255911793	0	59.99867324216021	1.047174394903917	-4.999999727816021	0	0	44.96584376936381	-10.00000255911793	0	59.99867324216021	1.047174394903917	-4.999999727816021	0	0	8.029161791889248	-6.517332054041476	-6.062146123449355	73.20161960069814	24.19198444332756	81.6469194386618	0.01694399565987889	44.99996993607267	0	0	0	-14.55014527809038	0	75.03194118923297	44.99996993607267	0	0
9.140000000000001	1.081093312844617	-1.835711624096549	152.2216713687586	0	0.9399999999999999	0	44.9659758026762	-10.00000253102082	0	59.99867868057832	1.047174489822219	-4.999999729512153	0	0	44.9659758026762	-10.00000253102082	0	59.99867868057832	1.047174489822219	-4.999999729512153	0	0	8.04496636024858	-6.48429432784585	-6.049585461056355	80.71844363924632	17.4763798825084	82.25724438121402	0.02463587554703609	44.99997020744193	0	0	0	-14.55115413925413	0	75.03181839895896	44.99997020744193	0	0
9.15	1.064918983820926	-1.840317786805489	152.2101058903013	0	0.9399999999999999	0	44.96603490316124	-10.00000251886725	0	59.99868106019646	1.04717453135439	-4.99999973023462	0	0	44.96603490316124	-10.00000251886725	0	59.99868106019646	1.04717453135439	-4.99999973023462	0	0	8.097251222705992	-6.493091460684179	-6.045921003407147	88.5309096884788	11.80927070434148	83.55712327873179	0.03531166485019485	44.99997032612347	0	0	0	-14.55160595404309	0	75.03176343582223	44.99997032612347	0	0
9.16	1.043339175983015	-1.832505922289882	152.218773735586	0	0.9399999999999999	0	44.96611112380514	-10.00000250405826	0	59.99868420350085	1.047174586215401	-4.999999731101351	0	0	44.96611112380514	-10.00000250405826	0	59.99868420350085	1.047174586215401	-4.999999731101351	0	0	11.98254649976105	-6.413940095056857	-5.637327926136282	89.96970850069684	7.320005911212917	86.26958714944169	0.06074849076944348	44.99997047257858	0	0	0	-14.55220083201101	0	75.03169255101703	44.99997047257858	0	0
9.17	1.047472554214361	-1.855622525505277	152.2172459484691	0	0.9399999999999999	0	44.96618964734732	-10.00000248882665	0	59.99868743852621	1.047174642677245	-4.999999731992067	0	0	44.96618964734732	-10.00000248882665	0	59.99868743852621	1.047174642677245	-4.999999731992067	0	0	16.27531517494566	-6.885249772742464	-5.12018253225004	89.98552971263068	3.417976893456901	88.57684828946235	0.2463321179332572	44.99997062329551	0	0	0	-14.55281375814491	0	75.03161952452821	44.99997062329551	0	0
9.18	1.049775426921912	-1.844606613740003	152.2093023837771	0	0.9399999999999999	0	44.96640892610813	-10.00000244557972	0	59.99869630688206	1.047174797459254	-4.999999734523933	0	0	44.96640892610813	-10.00000244557972	0	59.99869630688206	1.047174797459254	-4.999999734523933	0	0	18.46193990427662	-8.021805437457299	-4.745538068353711	89.98864655586482	-2.776026451555448	87.31838049405535	6.234762568482703	44.9999710503487	0	0	0	-14.55450732844014	0	75.0314155964282	44.9999710503487	0	0
9.19	1.048643086826728	-1.844448621181516	152.2148969067607	0	0.9399999999999999	0	44.96644674449566	-10.00000243593324	0	59.99869758132404	1.047174819702463	-4.999999735119927	0	0	44.96644674449566	-10.00000243593324	0	59.99869758132404	1.047174819702463	-4.999999735119927	0	0	20.19143844626985	-8.867517030770932	-4.44925703640301	89.99027972076772	-5.683207526667946	86.61468168818185	9.899669260693948	44.99997114112398	0	0	0	-14.55476390111493	0	75.03138042555898	44.99997114112398	0	0
9.199999999999999	1.062232192888422	-1.827087869179338	152.1883791414404	0	0.9399999999999999	0	44.96668277959894	-10.00000237535848	0	59.99870482453059	1.047174946120266	-4.999999738772976	0	0	44.96668277959894	-10.00000237535848	0	59.99870482453059	1.047174946120266	-4.999999738772976	0	0	20.27421728058281	-8.620056010222136	-4.408294721905942	89.99030836673529	-4.736917968200465	87.58666008618717	10.00476282171607	44.99997171861874	0	0	0	-14.55627148357804	0	75.03116091442556	44.99997171861874	0	0
